{
	"asset":{
		"generator":"Khronos glTF Blender I/O v5.0.21",
		"version":"2.0"
	},
	"scene":0,
	"scenes":[
		{
			"name":"Scene",
			"nodes":[
				25
			]
		}
	],
	"nodes":[
		{
			"name":"b_Head_05",
			"rotation":[
				-4.376348528012386e-08,
				-9.400125122738245e-07,
				-0.40028566122055054,
				0.9163904190063477
			],
			"scale":[
				0.9999999403953552,
				0.9999999403953552,
				1
			],
			"translation":[
				13.376960754394531,
				7.629340871062595e-06,
				1.2259229151823092e-05
			]
		},
		{
			"children":[
				0
			],
			"name":"b_Neck_04",
			"rotation":[
				-1.3188115133289102e-07,
				4.5903308887318417e-07,
				0.3033789098262787,
				0.9528700113296509
			],
			"translation":[
				25.649133682250977,
				8.285024705401156e-06,
				-1.2062810128554702e-06
			]
		},
		{
			"name":"b_RightHand_08",
			"rotation":[
				-0.012037231586873531,
				-0.007822275161743164,
				0.4605628252029419,
				0.8875110745429993
			],
			"scale":[
				1,
				0.9999999403953552,
				1
			],
			"translation":[
				19.35005760192871,
				-0.14598023891448975,
				-2.3414941097144037e-06
			]
		},
		{
			"children":[
				2
			],
			"name":"b_RightForeArm_07",
			"rotation":[
				-1.9815391283373174e-07,
				-1.0009850939241005e-06,
				0.03712654858827591,
				0.9993105530738831
			],
			"translation":[
				23.045124053955078,
				3.1113624572753906e-05,
				4.283672751626e-05
			]
		},
		{
			"children":[
				3
			],
			"name":"b_RightUpperArm_06",
			"rotation":[
				0.0004680482088588178,
				-0.00044556966167874634,
				-0.7121798992156982,
				0.7019967436790466
			],
			"scale":[
				0.9999998807907104,
				0.9999998807907104,
				1
			],
			"translation":[
				18.677906036376953,
				-4.297327041625977,
				6.967575550079346
			]
		},
		{
			"name":"b_LeftHand_011",
			"rotation":[
				0.01651778630912304,
				0.01401321217417717,
				0.46007612347602844,
				0.8876152038574219
			],
			"scale":[
				1.0000001192092896,
				1,
				1
			],
			"translation":[
				19.350051879882812,
				-0.1459829956293106,
				1.817988231778145e-05
			]
		},
		{
			"children":[
				5
			],
			"name":"b_LeftForeArm_010",
			"rotation":[
				-4.7754564747037875e-08,
				9.179310609397362e-07,
				0.03712568059563637,
				0.9993106126785278
			],
			"scale":[
				0.9999999403953552,
				0.9999998807907104,
				1
			],
			"translation":[
				23.04513168334961,
				-3.227032721042633e-06,
				-2.086721360683441e-05
			]
		},
		{
			"children":[
				6
			],
			"name":"b_LeftUpperArm_09",
			"rotation":[
				0.0004968922585248947,
				-0.000882525579072535,
				-0.7120874524116516,
				0.7020900845527649
			],
			"translation":[
				18.67790412902832,
				-4.297337532043457,
				-6.967987537384033
			]
		},
		{
			"children":[
				1,
				4,
				7
			],
			"name":"b_Spine02_03",
			"rotation":[
				-7.152843650715113e-09,
				-4.577541403705254e-07,
				0.017412004992365837,
				0.9998484253883362
			],
			"scale":[
				1,
				1.0000001192092896,
				1
			],
			"translation":[
				21.65574836730957,
				-0.00011547655594768003,
				1.8810545952874236e-05
			]
		},
		{
			"children":[
				8
			],
			"name":"b_Spine01_02",
			"rotation":[
				4.1827357222246064e-07,
				1.2164201734776725e-07,
				-0.5904167294502258,
				0.8070985674858093
			],
			"translation":[
				12.850597381591797,
				-3.24249267578125e-05,
				7.293310773093253e-06
			]
		},
		{
			"name":"b_Tail03_014",
			"rotation":[
				2.281700162143352e-08,
				8.100143134015525e-08,
				-0.053832631558179855,
				0.9985499382019043
			],
			"translation":[
				24.240346908569336,
				2.2888149032951333e-05,
				8.307850293931551e-06
			]
		},
		{
			"children":[
				10
			],
			"name":"b_Tail02_013",
			"rotation":[
				2.293627510141505e-08,
				1.32251676276951e-08,
				-0.06961745768785477,
				0.9975737929344177
			],
			"scale":[
				0.9999999403953552,
				1.0000001192092896,
				1
			],
			"translation":[
				12.411919593811035,
				1.9073462681262754e-05,
				3.924804332200438e-06
			]
		},
		{
			"children":[
				11
			],
			"name":"b_Tail01_012",
			"rotation":[
				-4.3131669258400507e-07,
				-1.8718870009593047e-08,
				0.9818927049636841,
				0.18943804502487183
			],
			"scale":[
				0.9999994039535522,
				1,
				1
			],
			"translation":[
				4.260408401489258,
				15.95875358581543,
				2.3338047867582645e-06
			]
		},
		{
			"name":"b_LeftFoot02_018",
			"rotation":[
				5.565921057382184e-08,
				4.294370015145432e-08,
				0.5472885966300964,
				0.8369439840316772
			],
			"scale":[
				0.9999998807907104,
				0.9999998807907104,
				1
			],
			"translation":[
				15.779932975769043,
				-5.439622327685356e-06,
				-4.601010004989803e-06
			]
		},
		{
			"children":[
				13
			],
			"name":"b_LeftFoot01_017",
			"rotation":[
				0.0002483809366822243,
				-1.6088199572550366e-07,
				0.4584846496582031,
				0.8887023329734802
			],
			"scale":[
				0.9999999403953552,
				0.9999999403953552,
				0.9999999403953552
			],
			"translation":[
				17.94280433654785,
				2.7067959308624268e-05,
				1.019041519612074e-06
			]
		},
		{
			"children":[
				14
			],
			"name":"b_LeftLeg02_016",
			"rotation":[
				1.0861517552029909e-07,
				-4.04892603000917e-07,
				-0.36804354190826416,
				0.9298085570335388
			],
			"translation":[
				18.94416618347168,
				1.3681827113032341e-05,
				1.8092221580445766e-05
			]
		},
		{
			"children":[
				15
			],
			"name":"b_LeftLeg01_015",
			"rotation":[
				7.153627166189835e-07,
				0.0001718297862680629,
				-0.9700163006782532,
				0.24303974211215973
			],
			"scale":[
				1.000000238418579,
				1,
				1
			],
			"translation":[
				4.813786029815674,
				5.1540069580078125,
				-6.968003273010254
			]
		},
		{
			"name":"b_RightFoot02_022",
			"rotation":[
				-1.2671610249981313e-07,
				3.5850376889356994e-07,
				0.5472877621650696,
				0.8369445204734802
			],
			"scale":[
				1,
				0.9999998807907104,
				1
			],
			"translation":[
				15.779942512512207,
				-1.9174418412148952e-05,
				-3.7392637750599533e-06
			]
		},
		{
			"children":[
				17
			],
			"name":"b_RightFoot01_021",
			"rotation":[
				-0.00015321663522627205,
				3.3067192362068454e-07,
				0.45790988206863403,
				0.8889986276626587
			],
			"scale":[
				1,
				0.9999999403953552,
				0.9999999403953552
			],
			"translation":[
				17.942819595336914,
				9.267341738450341e-08,
				-1.9734810848603956e-05
			]
		},
		{
			"children":[
				18
			],
			"name":"b_RightLeg02_020",
			"rotation":[
				-2.0576743509082007e-07,
				-3.3892689543790766e-07,
				-0.3680439889431,
				0.9298084378242493
			],
			"scale":[
				0.9999999403953552,
				0.9999999403953552,
				1
			],
			"translation":[
				18.944194793701172,
				-1.3081251381663606e-05,
				-5.332010914571583e-06
			]
		},
		{
			"children":[
				19
			],
			"name":"b_RightLeg01_019",
			"rotation":[
				9.691870417327664e-08,
				-1.3139367638359545e-07,
				-0.9699587821960449,
				0.24326933920383453
			],
			"scale":[
				0.9999993443489075,
				0.9999999403953552,
				1
			],
			"translation":[
				4.813785076141357,
				5.154016494750977,
				6.967566013336182
			]
		},
		{
			"children":[
				9,
				12,
				16,
				20
			],
			"name":"b_Hip_01",
			"rotation":[
				0.12769024074077606,
				-0.6954819560050964,
				-0.127689391374588,
				0.6954821944236755
			],
			"scale":[
				0.9999999403953552,
				1,
				1
			],
			"translation":[
				-1.7494729623312999e-12,
				26.748403549194336,
				42.93817138671875
			]
		},
		{
			"children":[
				21
			],
			"name":"b_Root_00",
			"rotation":[
				-0.7071080207824707,
				-1.210159705777869e-08,
				-1.2101639690342836e-08,
				0.7071055173873901
			]
		},
		{
			"children":[
				22
			],
			"name":"_rootJoint",
			"rotation":[
				-8.557136332854043e-09,
				1.7114272665708086e-08,
				-2.928983286277023e-16,
				1
			]
		},
		{
			"mesh":0,
			"name":"fox",
			"skin":0
		},
		{
			"children":[
				24,
				23
			],
			"name":"root"
		}
	],
	"animations":[
		{
			"channels":[
				{
					"sampler":0,
					"target":{
						"node":23,
						"path":"translation"
					}
				},
				{
					"sampler":1,
					"target":{
						"node":23,
						"path":"rotation"
					}
				},
				{
					"sampler":2,
					"target":{
						"node":23,
						"path":"scale"
					}
				},
				{
					"sampler":3,
					"target":{
						"node":22,
						"path":"translation"
					}
				},
				{
					"sampler":4,
					"target":{
						"node":22,
						"path":"rotation"
					}
				},
				{
					"sampler":5,
					"target":{
						"node":22,
						"path":"scale"
					}
				},
				{
					"sampler":6,
					"target":{
						"node":21,
						"path":"translation"
					}
				},
				{
					"sampler":7,
					"target":{
						"node":21,
						"path":"rotation"
					}
				},
				{
					"sampler":8,
					"target":{
						"node":21,
						"path":"scale"
					}
				},
				{
					"sampler":9,
					"target":{
						"node":9,
						"path":"translation"
					}
				},
				{
					"sampler":10,
					"target":{
						"node":9,
						"path":"rotation"
					}
				},
				{
					"sampler":11,
					"target":{
						"node":9,
						"path":"scale"
					}
				},
				{
					"sampler":12,
					"target":{
						"node":8,
						"path":"translation"
					}
				},
				{
					"sampler":13,
					"target":{
						"node":8,
						"path":"rotation"
					}
				},
				{
					"sampler":14,
					"target":{
						"node":8,
						"path":"scale"
					}
				},
				{
					"sampler":15,
					"target":{
						"node":1,
						"path":"translation"
					}
				},
				{
					"sampler":16,
					"target":{
						"node":1,
						"path":"rotation"
					}
				},
				{
					"sampler":17,
					"target":{
						"node":1,
						"path":"scale"
					}
				},
				{
					"sampler":18,
					"target":{
						"node":0,
						"path":"translation"
					}
				},
				{
					"sampler":19,
					"target":{
						"node":0,
						"path":"rotation"
					}
				},
				{
					"sampler":20,
					"target":{
						"node":0,
						"path":"scale"
					}
				},
				{
					"sampler":21,
					"target":{
						"node":4,
						"path":"translation"
					}
				},
				{
					"sampler":22,
					"target":{
						"node":4,
						"path":"rotation"
					}
				},
				{
					"sampler":23,
					"target":{
						"node":4,
						"path":"scale"
					}
				},
				{
					"sampler":24,
					"target":{
						"node":3,
						"path":"translation"
					}
				},
				{
					"sampler":25,
					"target":{
						"node":3,
						"path":"rotation"
					}
				},
				{
					"sampler":26,
					"target":{
						"node":3,
						"path":"scale"
					}
				},
				{
					"sampler":27,
					"target":{
						"node":2,
						"path":"translation"
					}
				},
				{
					"sampler":28,
					"target":{
						"node":2,
						"path":"rotation"
					}
				},
				{
					"sampler":29,
					"target":{
						"node":2,
						"path":"scale"
					}
				},
				{
					"sampler":30,
					"target":{
						"node":7,
						"path":"translation"
					}
				},
				{
					"sampler":31,
					"target":{
						"node":7,
						"path":"rotation"
					}
				},
				{
					"sampler":32,
					"target":{
						"node":7,
						"path":"scale"
					}
				},
				{
					"sampler":33,
					"target":{
						"node":6,
						"path":"translation"
					}
				},
				{
					"sampler":34,
					"target":{
						"node":6,
						"path":"rotation"
					}
				},
				{
					"sampler":35,
					"target":{
						"node":6,
						"path":"scale"
					}
				},
				{
					"sampler":36,
					"target":{
						"node":5,
						"path":"translation"
					}
				},
				{
					"sampler":37,
					"target":{
						"node":5,
						"path":"rotation"
					}
				},
				{
					"sampler":38,
					"target":{
						"node":5,
						"path":"scale"
					}
				},
				{
					"sampler":39,
					"target":{
						"node":12,
						"path":"translation"
					}
				},
				{
					"sampler":40,
					"target":{
						"node":12,
						"path":"rotation"
					}
				},
				{
					"sampler":41,
					"target":{
						"node":12,
						"path":"scale"
					}
				},
				{
					"sampler":42,
					"target":{
						"node":11,
						"path":"translation"
					}
				},
				{
					"sampler":43,
					"target":{
						"node":11,
						"path":"rotation"
					}
				},
				{
					"sampler":44,
					"target":{
						"node":11,
						"path":"scale"
					}
				},
				{
					"sampler":45,
					"target":{
						"node":10,
						"path":"translation"
					}
				},
				{
					"sampler":46,
					"target":{
						"node":10,
						"path":"rotation"
					}
				},
				{
					"sampler":47,
					"target":{
						"node":10,
						"path":"scale"
					}
				},
				{
					"sampler":48,
					"target":{
						"node":16,
						"path":"translation"
					}
				},
				{
					"sampler":49,
					"target":{
						"node":16,
						"path":"rotation"
					}
				},
				{
					"sampler":50,
					"target":{
						"node":16,
						"path":"scale"
					}
				},
				{
					"sampler":51,
					"target":{
						"node":15,
						"path":"translation"
					}
				},
				{
					"sampler":52,
					"target":{
						"node":15,
						"path":"rotation"
					}
				},
				{
					"sampler":53,
					"target":{
						"node":15,
						"path":"scale"
					}
				},
				{
					"sampler":54,
					"target":{
						"node":14,
						"path":"translation"
					}
				},
				{
					"sampler":55,
					"target":{
						"node":14,
						"path":"rotation"
					}
				},
				{
					"sampler":56,
					"target":{
						"node":14,
						"path":"scale"
					}
				},
				{
					"sampler":57,
					"target":{
						"node":13,
						"path":"translation"
					}
				},
				{
					"sampler":58,
					"target":{
						"node":13,
						"path":"rotation"
					}
				},
				{
					"sampler":59,
					"target":{
						"node":13,
						"path":"scale"
					}
				},
				{
					"sampler":60,
					"target":{
						"node":20,
						"path":"translation"
					}
				},
				{
					"sampler":61,
					"target":{
						"node":20,
						"path":"rotation"
					}
				},
				{
					"sampler":62,
					"target":{
						"node":20,
						"path":"scale"
					}
				},
				{
					"sampler":63,
					"target":{
						"node":19,
						"path":"translation"
					}
				},
				{
					"sampler":64,
					"target":{
						"node":19,
						"path":"rotation"
					}
				},
				{
					"sampler":65,
					"target":{
						"node":19,
						"path":"scale"
					}
				},
				{
					"sampler":66,
					"target":{
						"node":18,
						"path":"translation"
					}
				},
				{
					"sampler":67,
					"target":{
						"node":18,
						"path":"rotation"
					}
				},
				{
					"sampler":68,
					"target":{
						"node":18,
						"path":"scale"
					}
				},
				{
					"sampler":69,
					"target":{
						"node":17,
						"path":"translation"
					}
				},
				{
					"sampler":70,
					"target":{
						"node":17,
						"path":"rotation"
					}
				},
				{
					"sampler":71,
					"target":{
						"node":17,
						"path":"scale"
					}
				}
			],
			"name":"Run",
			"samplers":[
				{
					"input":7,
					"interpolation":"STEP",
					"output":8
				},
				{
					"input":7,
					"interpolation":"STEP",
					"output":9
				},
				{
					"input":7,
					"interpolation":"STEP",
					"output":10
				},
				{
					"input":7,
					"interpolation":"STEP",
					"output":8
				},
				{
					"input":7,
					"interpolation":"STEP",
					"output":11
				},
				{
					"input":7,
					"interpolation":"STEP",
					"output":10
				},
				{
					"input":12,
					"interpolation":"LINEAR",
					"output":13
				},
				{
					"input":12,
					"interpolation":"LINEAR",
					"output":14
				},
				{
					"input":7,
					"interpolation":"STEP",
					"output":15
				},
				{
					"input":7,
					"interpolation":"STEP",
					"output":16
				},
				{
					"input":12,
					"interpolation":"LINEAR",
					"output":17
				},
				{
					"input":7,
					"interpolation":"STEP",
					"output":18
				},
				{
					"input":7,
					"interpolation":"STEP",
					"output":19
				},
				{
					"input":12,
					"interpolation":"LINEAR",
					"output":20
				},
				{
					"input":7,
					"interpolation":"STEP",
					"output":21
				},
				{
					"input":7,
					"interpolation":"STEP",
					"output":22
				},
				{
					"input":12,
					"interpolation":"LINEAR",
					"output":23
				},
				{
					"input":7,
					"interpolation":"STEP",
					"output":24
				},
				{
					"input":7,
					"interpolation":"STEP",
					"output":25
				},
				{
					"input":12,
					"interpolation":"LINEAR",
					"output":26
				},
				{
					"input":7,
					"interpolation":"STEP",
					"output":27
				},
				{
					"input":7,
					"interpolation":"STEP",
					"output":28
				},
				{
					"input":12,
					"interpolation":"LINEAR",
					"output":29
				},
				{
					"input":7,
					"interpolation":"STEP",
					"output":30
				},
				{
					"input":7,
					"interpolation":"STEP",
					"output":31
				},
				{
					"input":12,
					"interpolation":"LINEAR",
					"output":32
				},
				{
					"input":7,
					"interpolation":"STEP",
					"output":33
				},
				{
					"input":7,
					"interpolation":"STEP",
					"output":34
				},
				{
					"input":12,
					"interpolation":"LINEAR",
					"output":35
				},
				{
					"input":7,
					"interpolation":"STEP",
					"output":36
				},
				{
					"input":7,
					"interpolation":"STEP",
					"output":37
				},
				{
					"input":12,
					"interpolation":"LINEAR",
					"output":38
				},
				{
					"input":7,
					"interpolation":"STEP",
					"output":39
				},
				{
					"input":7,
					"interpolation":"STEP",
					"output":40
				},
				{
					"input":12,
					"interpolation":"LINEAR",
					"output":41
				},
				{
					"input":7,
					"interpolation":"STEP",
					"output":42
				},
				{
					"input":7,
					"interpolation":"STEP",
					"output":43
				},
				{
					"input":12,
					"interpolation":"LINEAR",
					"output":44
				},
				{
					"input":7,
					"interpolation":"STEP",
					"output":45
				},
				{
					"input":7,
					"interpolation":"STEP",
					"output":46
				},
				{
					"input":12,
					"interpolation":"LINEAR",
					"output":47
				},
				{
					"input":7,
					"interpolation":"STEP",
					"output":48
				},
				{
					"input":7,
					"interpolation":"STEP",
					"output":49
				},
				{
					"input":12,
					"interpolation":"LINEAR",
					"output":50
				},
				{
					"input":7,
					"interpolation":"STEP",
					"output":51
				},
				{
					"input":7,
					"interpolation":"STEP",
					"output":52
				},
				{
					"input":12,
					"interpolation":"LINEAR",
					"output":53
				},
				{
					"input":7,
					"interpolation":"STEP",
					"output":54
				},
				{
					"input":7,
					"interpolation":"STEP",
					"output":55
				},
				{
					"input":12,
					"interpolation":"LINEAR",
					"output":56
				},
				{
					"input":7,
					"interpolation":"STEP",
					"output":57
				},
				{
					"input":7,
					"interpolation":"STEP",
					"output":58
				},
				{
					"input":12,
					"interpolation":"LINEAR",
					"output":59
				},
				{
					"input":7,
					"interpolation":"STEP",
					"output":60
				},
				{
					"input":7,
					"interpolation":"STEP",
					"output":61
				},
				{
					"input":12,
					"interpolation":"LINEAR",
					"output":62
				},
				{
					"input":7,
					"interpolation":"STEP",
					"output":63
				},
				{
					"input":7,
					"interpolation":"STEP",
					"output":64
				},
				{
					"input":7,
					"interpolation":"STEP",
					"output":65
				},
				{
					"input":7,
					"interpolation":"STEP",
					"output":66
				},
				{
					"input":7,
					"interpolation":"STEP",
					"output":67
				},
				{
					"input":12,
					"interpolation":"LINEAR",
					"output":68
				},
				{
					"input":7,
					"interpolation":"STEP",
					"output":69
				},
				{
					"input":7,
					"interpolation":"STEP",
					"output":70
				},
				{
					"input":12,
					"interpolation":"LINEAR",
					"output":71
				},
				{
					"input":7,
					"interpolation":"STEP",
					"output":72
				},
				{
					"input":7,
					"interpolation":"STEP",
					"output":73
				},
				{
					"input":12,
					"interpolation":"LINEAR",
					"output":74
				},
				{
					"input":7,
					"interpolation":"STEP",
					"output":75
				},
				{
					"input":7,
					"interpolation":"STEP",
					"output":76
				},
				{
					"input":7,
					"interpolation":"STEP",
					"output":77
				},
				{
					"input":7,
					"interpolation":"STEP",
					"output":10
				}
			]
		},
		{
			"channels":[
				{
					"sampler":0,
					"target":{
						"node":23,
						"path":"translation"
					}
				},
				{
					"sampler":1,
					"target":{
						"node":23,
						"path":"rotation"
					}
				},
				{
					"sampler":2,
					"target":{
						"node":23,
						"path":"scale"
					}
				},
				{
					"sampler":3,
					"target":{
						"node":22,
						"path":"translation"
					}
				},
				{
					"sampler":4,
					"target":{
						"node":22,
						"path":"rotation"
					}
				},
				{
					"sampler":5,
					"target":{
						"node":22,
						"path":"scale"
					}
				},
				{
					"sampler":6,
					"target":{
						"node":21,
						"path":"translation"
					}
				},
				{
					"sampler":7,
					"target":{
						"node":21,
						"path":"rotation"
					}
				},
				{
					"sampler":8,
					"target":{
						"node":21,
						"path":"scale"
					}
				},
				{
					"sampler":9,
					"target":{
						"node":9,
						"path":"translation"
					}
				},
				{
					"sampler":10,
					"target":{
						"node":9,
						"path":"rotation"
					}
				},
				{
					"sampler":11,
					"target":{
						"node":9,
						"path":"scale"
					}
				},
				{
					"sampler":12,
					"target":{
						"node":8,
						"path":"translation"
					}
				},
				{
					"sampler":13,
					"target":{
						"node":8,
						"path":"rotation"
					}
				},
				{
					"sampler":14,
					"target":{
						"node":8,
						"path":"scale"
					}
				},
				{
					"sampler":15,
					"target":{
						"node":1,
						"path":"translation"
					}
				},
				{
					"sampler":16,
					"target":{
						"node":1,
						"path":"rotation"
					}
				},
				{
					"sampler":17,
					"target":{
						"node":1,
						"path":"scale"
					}
				},
				{
					"sampler":18,
					"target":{
						"node":0,
						"path":"translation"
					}
				},
				{
					"sampler":19,
					"target":{
						"node":0,
						"path":"rotation"
					}
				},
				{
					"sampler":20,
					"target":{
						"node":0,
						"path":"scale"
					}
				},
				{
					"sampler":21,
					"target":{
						"node":4,
						"path":"translation"
					}
				},
				{
					"sampler":22,
					"target":{
						"node":4,
						"path":"rotation"
					}
				},
				{
					"sampler":23,
					"target":{
						"node":4,
						"path":"scale"
					}
				},
				{
					"sampler":24,
					"target":{
						"node":3,
						"path":"translation"
					}
				},
				{
					"sampler":25,
					"target":{
						"node":3,
						"path":"rotation"
					}
				},
				{
					"sampler":26,
					"target":{
						"node":3,
						"path":"scale"
					}
				},
				{
					"sampler":27,
					"target":{
						"node":2,
						"path":"translation"
					}
				},
				{
					"sampler":28,
					"target":{
						"node":2,
						"path":"rotation"
					}
				},
				{
					"sampler":29,
					"target":{
						"node":2,
						"path":"scale"
					}
				},
				{
					"sampler":30,
					"target":{
						"node":7,
						"path":"translation"
					}
				},
				{
					"sampler":31,
					"target":{
						"node":7,
						"path":"rotation"
					}
				},
				{
					"sampler":32,
					"target":{
						"node":7,
						"path":"scale"
					}
				},
				{
					"sampler":33,
					"target":{
						"node":6,
						"path":"translation"
					}
				},
				{
					"sampler":34,
					"target":{
						"node":6,
						"path":"rotation"
					}
				},
				{
					"sampler":35,
					"target":{
						"node":6,
						"path":"scale"
					}
				},
				{
					"sampler":36,
					"target":{
						"node":5,
						"path":"translation"
					}
				},
				{
					"sampler":37,
					"target":{
						"node":5,
						"path":"rotation"
					}
				},
				{
					"sampler":38,
					"target":{
						"node":5,
						"path":"scale"
					}
				},
				{
					"sampler":39,
					"target":{
						"node":12,
						"path":"translation"
					}
				},
				{
					"sampler":40,
					"target":{
						"node":12,
						"path":"rotation"
					}
				},
				{
					"sampler":41,
					"target":{
						"node":12,
						"path":"scale"
					}
				},
				{
					"sampler":42,
					"target":{
						"node":11,
						"path":"translation"
					}
				},
				{
					"sampler":43,
					"target":{
						"node":11,
						"path":"rotation"
					}
				},
				{
					"sampler":44,
					"target":{
						"node":11,
						"path":"scale"
					}
				},
				{
					"sampler":45,
					"target":{
						"node":10,
						"path":"translation"
					}
				},
				{
					"sampler":46,
					"target":{
						"node":10,
						"path":"rotation"
					}
				},
				{
					"sampler":47,
					"target":{
						"node":10,
						"path":"scale"
					}
				},
				{
					"sampler":48,
					"target":{
						"node":16,
						"path":"translation"
					}
				},
				{
					"sampler":49,
					"target":{
						"node":16,
						"path":"rotation"
					}
				},
				{
					"sampler":50,
					"target":{
						"node":16,
						"path":"scale"
					}
				},
				{
					"sampler":51,
					"target":{
						"node":15,
						"path":"translation"
					}
				},
				{
					"sampler":52,
					"target":{
						"node":15,
						"path":"rotation"
					}
				},
				{
					"sampler":53,
					"target":{
						"node":15,
						"path":"scale"
					}
				},
				{
					"sampler":54,
					"target":{
						"node":14,
						"path":"translation"
					}
				},
				{
					"sampler":55,
					"target":{
						"node":14,
						"path":"rotation"
					}
				},
				{
					"sampler":56,
					"target":{
						"node":14,
						"path":"scale"
					}
				},
				{
					"sampler":57,
					"target":{
						"node":13,
						"path":"translation"
					}
				},
				{
					"sampler":58,
					"target":{
						"node":13,
						"path":"rotation"
					}
				},
				{
					"sampler":59,
					"target":{
						"node":13,
						"path":"scale"
					}
				},
				{
					"sampler":60,
					"target":{
						"node":20,
						"path":"translation"
					}
				},
				{
					"sampler":61,
					"target":{
						"node":20,
						"path":"rotation"
					}
				},
				{
					"sampler":62,
					"target":{
						"node":20,
						"path":"scale"
					}
				},
				{
					"sampler":63,
					"target":{
						"node":19,
						"path":"translation"
					}
				},
				{
					"sampler":64,
					"target":{
						"node":19,
						"path":"rotation"
					}
				},
				{
					"sampler":65,
					"target":{
						"node":19,
						"path":"scale"
					}
				},
				{
					"sampler":66,
					"target":{
						"node":18,
						"path":"translation"
					}
				},
				{
					"sampler":67,
					"target":{
						"node":18,
						"path":"rotation"
					}
				},
				{
					"sampler":68,
					"target":{
						"node":18,
						"path":"scale"
					}
				},
				{
					"sampler":69,
					"target":{
						"node":17,
						"path":"translation"
					}
				},
				{
					"sampler":70,
					"target":{
						"node":17,
						"path":"rotation"
					}
				},
				{
					"sampler":71,
					"target":{
						"node":17,
						"path":"scale"
					}
				}
			],
			"name":"Survey",
			"samplers":[
				{
					"input":78,
					"interpolation":"STEP",
					"output":8
				},
				{
					"input":78,
					"interpolation":"STEP",
					"output":9
				},
				{
					"input":78,
					"interpolation":"STEP",
					"output":10
				},
				{
					"input":78,
					"interpolation":"STEP",
					"output":8
				},
				{
					"input":78,
					"interpolation":"STEP",
					"output":11
				},
				{
					"input":78,
					"interpolation":"STEP",
					"output":10
				},
				{
					"input":79,
					"interpolation":"LINEAR",
					"output":80
				},
				{
					"input":78,
					"interpolation":"STEP",
					"output":81
				},
				{
					"input":78,
					"interpolation":"STEP",
					"output":82
				},
				{
					"input":78,
					"interpolation":"STEP",
					"output":83
				},
				{
					"input":78,
					"interpolation":"STEP",
					"output":84
				},
				{
					"input":78,
					"interpolation":"STEP",
					"output":85
				},
				{
					"input":78,
					"interpolation":"STEP",
					"output":86
				},
				{
					"input":79,
					"interpolation":"LINEAR",
					"output":87
				},
				{
					"input":78,
					"interpolation":"STEP",
					"output":10
				},
				{
					"input":78,
					"interpolation":"STEP",
					"output":88
				},
				{
					"input":79,
					"interpolation":"LINEAR",
					"output":89
				},
				{
					"input":78,
					"interpolation":"STEP",
					"output":10
				},
				{
					"input":78,
					"interpolation":"STEP",
					"output":90
				},
				{
					"input":79,
					"interpolation":"LINEAR",
					"output":91
				},
				{
					"input":78,
					"interpolation":"STEP",
					"output":27
				},
				{
					"input":78,
					"interpolation":"STEP",
					"output":92
				},
				{
					"input":79,
					"interpolation":"LINEAR",
					"output":93
				},
				{
					"input":78,
					"interpolation":"STEP",
					"output":94
				},
				{
					"input":78,
					"interpolation":"STEP",
					"output":95
				},
				{
					"input":79,
					"interpolation":"LINEAR",
					"output":96
				},
				{
					"input":78,
					"interpolation":"STEP",
					"output":97
				},
				{
					"input":78,
					"interpolation":"STEP",
					"output":98
				},
				{
					"input":79,
					"interpolation":"LINEAR",
					"output":99
				},
				{
					"input":78,
					"interpolation":"STEP",
					"output":100
				},
				{
					"input":78,
					"interpolation":"STEP",
					"output":101
				},
				{
					"input":79,
					"interpolation":"LINEAR",
					"output":102
				},
				{
					"input":78,
					"interpolation":"STEP",
					"output":103
				},
				{
					"input":78,
					"interpolation":"STEP",
					"output":104
				},
				{
					"input":79,
					"interpolation":"LINEAR",
					"output":105
				},
				{
					"input":78,
					"interpolation":"STEP",
					"output":10
				},
				{
					"input":78,
					"interpolation":"STEP",
					"output":106
				},
				{
					"input":79,
					"interpolation":"LINEAR",
					"output":107
				},
				{
					"input":78,
					"interpolation":"STEP",
					"output":97
				},
				{
					"input":78,
					"interpolation":"STEP",
					"output":108
				},
				{
					"input":79,
					"interpolation":"LINEAR",
					"output":109
				},
				{
					"input":78,
					"interpolation":"STEP",
					"output":110
				},
				{
					"input":78,
					"interpolation":"STEP",
					"output":111
				},
				{
					"input":79,
					"interpolation":"LINEAR",
					"output":112
				},
				{
					"input":78,
					"interpolation":"STEP",
					"output":113
				},
				{
					"input":78,
					"interpolation":"STEP",
					"output":114
				},
				{
					"input":79,
					"interpolation":"LINEAR",
					"output":115
				},
				{
					"input":78,
					"interpolation":"STEP",
					"output":116
				},
				{
					"input":78,
					"interpolation":"STEP",
					"output":117
				},
				{
					"input":79,
					"interpolation":"LINEAR",
					"output":118
				},
				{
					"input":78,
					"interpolation":"STEP",
					"output":119
				},
				{
					"input":78,
					"interpolation":"STEP",
					"output":120
				},
				{
					"input":79,
					"interpolation":"LINEAR",
					"output":121
				},
				{
					"input":78,
					"interpolation":"STEP",
					"output":10
				},
				{
					"input":78,
					"interpolation":"STEP",
					"output":122
				},
				{
					"input":79,
					"interpolation":"LINEAR",
					"output":123
				},
				{
					"input":78,
					"interpolation":"STEP",
					"output":124
				},
				{
					"input":78,
					"interpolation":"STEP",
					"output":125
				},
				{
					"input":78,
					"interpolation":"STEP",
					"output":126
				},
				{
					"input":78,
					"interpolation":"STEP",
					"output":127
				},
				{
					"input":78,
					"interpolation":"STEP",
					"output":128
				},
				{
					"input":79,
					"interpolation":"LINEAR",
					"output":129
				},
				{
					"input":78,
					"interpolation":"STEP",
					"output":130
				},
				{
					"input":78,
					"interpolation":"STEP",
					"output":131
				},
				{
					"input":79,
					"interpolation":"LINEAR",
					"output":132
				},
				{
					"input":78,
					"interpolation":"STEP",
					"output":10
				},
				{
					"input":78,
					"interpolation":"STEP",
					"output":133
				},
				{
					"input":79,
					"interpolation":"LINEAR",
					"output":134
				},
				{
					"input":78,
					"interpolation":"STEP",
					"output":135
				},
				{
					"input":78,
					"interpolation":"STEP",
					"output":136
				},
				{
					"input":78,
					"interpolation":"STEP",
					"output":137
				},
				{
					"input":78,
					"interpolation":"STEP",
					"output":138
				}
			]
		},
		{
			"channels":[
				{
					"sampler":0,
					"target":{
						"node":23,
						"path":"translation"
					}
				},
				{
					"sampler":1,
					"target":{
						"node":23,
						"path":"rotation"
					}
				},
				{
					"sampler":2,
					"target":{
						"node":23,
						"path":"scale"
					}
				},
				{
					"sampler":3,
					"target":{
						"node":22,
						"path":"translation"
					}
				},
				{
					"sampler":4,
					"target":{
						"node":22,
						"path":"rotation"
					}
				},
				{
					"sampler":5,
					"target":{
						"node":22,
						"path":"scale"
					}
				},
				{
					"sampler":6,
					"target":{
						"node":21,
						"path":"translation"
					}
				},
				{
					"sampler":7,
					"target":{
						"node":21,
						"path":"rotation"
					}
				},
				{
					"sampler":8,
					"target":{
						"node":21,
						"path":"scale"
					}
				},
				{
					"sampler":9,
					"target":{
						"node":9,
						"path":"translation"
					}
				},
				{
					"sampler":10,
					"target":{
						"node":9,
						"path":"rotation"
					}
				},
				{
					"sampler":11,
					"target":{
						"node":9,
						"path":"scale"
					}
				},
				{
					"sampler":12,
					"target":{
						"node":8,
						"path":"translation"
					}
				},
				{
					"sampler":13,
					"target":{
						"node":8,
						"path":"rotation"
					}
				},
				{
					"sampler":14,
					"target":{
						"node":8,
						"path":"scale"
					}
				},
				{
					"sampler":15,
					"target":{
						"node":1,
						"path":"translation"
					}
				},
				{
					"sampler":16,
					"target":{
						"node":1,
						"path":"rotation"
					}
				},
				{
					"sampler":17,
					"target":{
						"node":1,
						"path":"scale"
					}
				},
				{
					"sampler":18,
					"target":{
						"node":0,
						"path":"translation"
					}
				},
				{
					"sampler":19,
					"target":{
						"node":0,
						"path":"rotation"
					}
				},
				{
					"sampler":20,
					"target":{
						"node":0,
						"path":"scale"
					}
				},
				{
					"sampler":21,
					"target":{
						"node":4,
						"path":"translation"
					}
				},
				{
					"sampler":22,
					"target":{
						"node":4,
						"path":"rotation"
					}
				},
				{
					"sampler":23,
					"target":{
						"node":4,
						"path":"scale"
					}
				},
				{
					"sampler":24,
					"target":{
						"node":3,
						"path":"translation"
					}
				},
				{
					"sampler":25,
					"target":{
						"node":3,
						"path":"rotation"
					}
				},
				{
					"sampler":26,
					"target":{
						"node":3,
						"path":"scale"
					}
				},
				{
					"sampler":27,
					"target":{
						"node":2,
						"path":"translation"
					}
				},
				{
					"sampler":28,
					"target":{
						"node":2,
						"path":"rotation"
					}
				},
				{
					"sampler":29,
					"target":{
						"node":2,
						"path":"scale"
					}
				},
				{
					"sampler":30,
					"target":{
						"node":7,
						"path":"translation"
					}
				},
				{
					"sampler":31,
					"target":{
						"node":7,
						"path":"rotation"
					}
				},
				{
					"sampler":32,
					"target":{
						"node":7,
						"path":"scale"
					}
				},
				{
					"sampler":33,
					"target":{
						"node":6,
						"path":"translation"
					}
				},
				{
					"sampler":34,
					"target":{
						"node":6,
						"path":"rotation"
					}
				},
				{
					"sampler":35,
					"target":{
						"node":6,
						"path":"scale"
					}
				},
				{
					"sampler":36,
					"target":{
						"node":5,
						"path":"translation"
					}
				},
				{
					"sampler":37,
					"target":{
						"node":5,
						"path":"rotation"
					}
				},
				{
					"sampler":38,
					"target":{
						"node":5,
						"path":"scale"
					}
				},
				{
					"sampler":39,
					"target":{
						"node":12,
						"path":"translation"
					}
				},
				{
					"sampler":40,
					"target":{
						"node":12,
						"path":"rotation"
					}
				},
				{
					"sampler":41,
					"target":{
						"node":12,
						"path":"scale"
					}
				},
				{
					"sampler":42,
					"target":{
						"node":11,
						"path":"translation"
					}
				},
				{
					"sampler":43,
					"target":{
						"node":11,
						"path":"rotation"
					}
				},
				{
					"sampler":44,
					"target":{
						"node":11,
						"path":"scale"
					}
				},
				{
					"sampler":45,
					"target":{
						"node":10,
						"path":"translation"
					}
				},
				{
					"sampler":46,
					"target":{
						"node":10,
						"path":"rotation"
					}
				},
				{
					"sampler":47,
					"target":{
						"node":10,
						"path":"scale"
					}
				},
				{
					"sampler":48,
					"target":{
						"node":16,
						"path":"translation"
					}
				},
				{
					"sampler":49,
					"target":{
						"node":16,
						"path":"rotation"
					}
				},
				{
					"sampler":50,
					"target":{
						"node":16,
						"path":"scale"
					}
				},
				{
					"sampler":51,
					"target":{
						"node":15,
						"path":"translation"
					}
				},
				{
					"sampler":52,
					"target":{
						"node":15,
						"path":"rotation"
					}
				},
				{
					"sampler":53,
					"target":{
						"node":15,
						"path":"scale"
					}
				},
				{
					"sampler":54,
					"target":{
						"node":14,
						"path":"translation"
					}
				},
				{
					"sampler":55,
					"target":{
						"node":14,
						"path":"rotation"
					}
				},
				{
					"sampler":56,
					"target":{
						"node":14,
						"path":"scale"
					}
				},
				{
					"sampler":57,
					"target":{
						"node":13,
						"path":"translation"
					}
				},
				{
					"sampler":58,
					"target":{
						"node":13,
						"path":"rotation"
					}
				},
				{
					"sampler":59,
					"target":{
						"node":13,
						"path":"scale"
					}
				},
				{
					"sampler":60,
					"target":{
						"node":20,
						"path":"translation"
					}
				},
				{
					"sampler":61,
					"target":{
						"node":20,
						"path":"rotation"
					}
				},
				{
					"sampler":62,
					"target":{
						"node":20,
						"path":"scale"
					}
				},
				{
					"sampler":63,
					"target":{
						"node":19,
						"path":"translation"
					}
				},
				{
					"sampler":64,
					"target":{
						"node":19,
						"path":"rotation"
					}
				},
				{
					"sampler":65,
					"target":{
						"node":19,
						"path":"scale"
					}
				},
				{
					"sampler":66,
					"target":{
						"node":18,
						"path":"translation"
					}
				},
				{
					"sampler":67,
					"target":{
						"node":18,
						"path":"rotation"
					}
				},
				{
					"sampler":68,
					"target":{
						"node":18,
						"path":"scale"
					}
				},
				{
					"sampler":69,
					"target":{
						"node":17,
						"path":"translation"
					}
				},
				{
					"sampler":70,
					"target":{
						"node":17,
						"path":"rotation"
					}
				},
				{
					"sampler":71,
					"target":{
						"node":17,
						"path":"scale"
					}
				}
			],
			"name":"Walk",
			"samplers":[
				{
					"input":139,
					"interpolation":"STEP",
					"output":8
				},
				{
					"input":139,
					"interpolation":"STEP",
					"output":9
				},
				{
					"input":139,
					"interpolation":"STEP",
					"output":10
				},
				{
					"input":139,
					"interpolation":"STEP",
					"output":8
				},
				{
					"input":139,
					"interpolation":"STEP",
					"output":11
				},
				{
					"input":139,
					"interpolation":"STEP",
					"output":10
				},
				{
					"input":140,
					"interpolation":"LINEAR",
					"output":141
				},
				{
					"input":140,
					"interpolation":"LINEAR",
					"output":142
				},
				{
					"input":139,
					"interpolation":"STEP",
					"output":94
				},
				{
					"input":139,
					"interpolation":"STEP",
					"output":143
				},
				{
					"input":140,
					"interpolation":"LINEAR",
					"output":144
				},
				{
					"input":139,
					"interpolation":"STEP",
					"output":10
				},
				{
					"input":139,
					"interpolation":"STEP",
					"output":145
				},
				{
					"input":140,
					"interpolation":"LINEAR",
					"output":146
				},
				{
					"input":139,
					"interpolation":"STEP",
					"output":147
				},
				{
					"input":139,
					"interpolation":"STEP",
					"output":148
				},
				{
					"input":140,
					"interpolation":"LINEAR",
					"output":149
				},
				{
					"input":139,
					"interpolation":"STEP",
					"output":10
				},
				{
					"input":139,
					"interpolation":"STEP",
					"output":150
				},
				{
					"input":140,
					"interpolation":"LINEAR",
					"output":151
				},
				{
					"input":139,
					"interpolation":"STEP",
					"output":124
				},
				{
					"input":139,
					"interpolation":"STEP",
					"output":152
				},
				{
					"input":140,
					"interpolation":"LINEAR",
					"output":153
				},
				{
					"input":139,
					"interpolation":"STEP",
					"output":127
				},
				{
					"input":139,
					"interpolation":"STEP",
					"output":154
				},
				{
					"input":140,
					"interpolation":"LINEAR",
					"output":155
				},
				{
					"input":139,
					"interpolation":"STEP",
					"output":156
				},
				{
					"input":139,
					"interpolation":"STEP",
					"output":157
				},
				{
					"input":140,
					"interpolation":"LINEAR",
					"output":158
				},
				{
					"input":139,
					"interpolation":"STEP",
					"output":97
				},
				{
					"input":139,
					"interpolation":"STEP",
					"output":159
				},
				{
					"input":140,
					"interpolation":"LINEAR",
					"output":160
				},
				{
					"input":139,
					"interpolation":"STEP",
					"output":161
				},
				{
					"input":139,
					"interpolation":"STEP",
					"output":162
				},
				{
					"input":140,
					"interpolation":"LINEAR",
					"output":163
				},
				{
					"input":139,
					"interpolation":"STEP",
					"output":156
				},
				{
					"input":139,
					"interpolation":"STEP",
					"output":164
				},
				{
					"input":140,
					"interpolation":"LINEAR",
					"output":165
				},
				{
					"input":139,
					"interpolation":"STEP",
					"output":166
				},
				{
					"input":139,
					"interpolation":"STEP",
					"output":167
				},
				{
					"input":140,
					"interpolation":"LINEAR",
					"output":168
				},
				{
					"input":139,
					"interpolation":"STEP",
					"output":169
				},
				{
					"input":139,
					"interpolation":"STEP",
					"output":170
				},
				{
					"input":140,
					"interpolation":"LINEAR",
					"output":171
				},
				{
					"input":139,
					"interpolation":"STEP",
					"output":172
				},
				{
					"input":139,
					"interpolation":"STEP",
					"output":173
				},
				{
					"input":140,
					"interpolation":"LINEAR",
					"output":174
				},
				{
					"input":139,
					"interpolation":"STEP",
					"output":175
				},
				{
					"input":139,
					"interpolation":"STEP",
					"output":176
				},
				{
					"input":140,
					"interpolation":"LINEAR",
					"output":177
				},
				{
					"input":139,
					"interpolation":"STEP",
					"output":178
				},
				{
					"input":139,
					"interpolation":"STEP",
					"output":179
				},
				{
					"input":140,
					"interpolation":"LINEAR",
					"output":180
				},
				{
					"input":139,
					"interpolation":"STEP",
					"output":138
				},
				{
					"input":139,
					"interpolation":"STEP",
					"output":181
				},
				{
					"input":140,
					"interpolation":"LINEAR",
					"output":182
				},
				{
					"input":139,
					"interpolation":"STEP",
					"output":183
				},
				{
					"input":139,
					"interpolation":"STEP",
					"output":184
				},
				{
					"input":139,
					"interpolation":"STEP",
					"output":185
				},
				{
					"input":139,
					"interpolation":"STEP",
					"output":186
				},
				{
					"input":139,
					"interpolation":"STEP",
					"output":187
				},
				{
					"input":140,
					"interpolation":"LINEAR",
					"output":188
				},
				{
					"input":139,
					"interpolation":"STEP",
					"output":189
				},
				{
					"input":139,
					"interpolation":"STEP",
					"output":190
				},
				{
					"input":140,
					"interpolation":"LINEAR",
					"output":191
				},
				{
					"input":139,
					"interpolation":"STEP",
					"output":27
				},
				{
					"input":139,
					"interpolation":"STEP",
					"output":192
				},
				{
					"input":140,
					"interpolation":"LINEAR",
					"output":193
				},
				{
					"input":139,
					"interpolation":"STEP",
					"output":85
				},
				{
					"input":139,
					"interpolation":"STEP",
					"output":194
				},
				{
					"input":139,
					"interpolation":"STEP",
					"output":195
				},
				{
					"input":139,
					"interpolation":"STEP",
					"output":10
				}
			]
		}
	],
	"materials":[
		{
			"name":"fox_material",
			"pbrMetallicRoughness":{
				"baseColorTexture":{
					"index":0
				},
				"metallicFactor":0,
				"roughnessFactor":0.5799999833106995
			}
		}
	],
	"meshes":[
		{
			"name":"fox1",
			"primitives":[
				{
					"attributes":{
						"POSITION":0,
						"NORMAL":1,
						"TEXCOORD_0":2,
						"JOINTS_0":3,
						"WEIGHTS_0":4
					},
					"indices":5,
					"material":0
				}
			]
		}
	],
	"textures":[
		{
			"sampler":0,
			"source":0
		}
	],
	"images":[
		{
			"mimeType":"image/png",
			"name":"Image_0",
			"uri":"Image_0.png"
		}
	],
	"skins":[
		{
			"inverseBindMatrices":6,
			"joints":[
				23,
				22,
				21,
				9,
				8,
				1,
				0,
				4,
				3,
				2,
				7,
				6,
				5,
				12,
				11,
				10,
				16,
				15,
				14,
				13,
				20,
				19,
				18,
				17
			],
			"name":"root"
		}
	],
	"accessors":[
		{
			"bufferView":0,
			"componentType":5126,
			"count":1728,
			"max":[
				12.592718124389648,
				78.90717315673828,
				66.62486267089844
			],
			"min":[
				-12.592718124389648,
				-0.12174424529075623,
				-88.09500885009766
			],
			"type":"VEC3"
		},
		{
			"bufferView":1,
			"componentType":5126,
			"count":1728,
			"type":"VEC3"
		},
		{
			"bufferView":2,
			"componentType":5126,
			"count":1728,
			"type":"VEC2"
		},
		{
			"bufferView":3,
			"componentType":5121,
			"count":1728,
			"type":"VEC4"
		},
		{
			"bufferView":4,
			"componentType":5126,
			"count":1728,
			"type":"VEC4"
		},
		{
			"bufferView":5,
			"componentType":5123,
			"count":1728,
			"type":"SCALAR"
		},
		{
			"bufferView":6,
			"componentType":5126,
			"count":24,
			"type":"MAT4"
		},
		{
			"bufferView":7,
			"componentType":5126,
			"count":2,
			"max":[
				1.125
			],
			"min":[
				0
			],
			"type":"SCALAR"
		},
		{
			"bufferView":8,
			"componentType":5126,
			"count":2,
			"type":"VEC3"
		},
		{
			"bufferView":9,
			"componentType":5126,
			"count":2,
			"type":"VEC4"
		},
		{
			"bufferView":10,
			"componentType":5126,
			"count":2,
			"type":"VEC3"
		},
		{
			"bufferView":11,
			"componentType":5126,
			"count":2,
			"type":"VEC4"
		},
		{
			"bufferView":12,
			"componentType":5126,
			"count":28,
			"max":[
				1.125
			],
			"min":[
				0
			],
			"type":"SCALAR"
		},
		{
			"bufferView":13,
			"componentType":5126,
			"count":28,
			"type":"VEC3"
		},
		{
			"bufferView":14,
			"componentType":5126,
			"count":28,
			"type":"VEC4"
		},
		{
			"bufferView":15,
			"componentType":5126,
			"count":2,
			"type":"VEC3"
		},
		{
			"bufferView":16,
			"componentType":5126,
			"count":2,
			"type":"VEC3"
		},
		{
			"bufferView":17,
			"componentType":5126,
			"count":28,
			"type":"VEC4"
		},
		{
			"bufferView":18,
			"componentType":5126,
			"count":2,
			"type":"VEC3"
		},
		{
			"bufferView":19,
			"componentType":5126,
			"count":2,
			"type":"VEC3"
		},
		{
			"bufferView":20,
			"componentType":5126,
			"count":28,
			"type":"VEC4"
		},
		{
			"bufferView":21,
			"componentType":5126,
			"count":2,
			"type":"VEC3"
		},
		{
			"bufferView":22,
			"componentType":5126,
			"count":2,
			"type":"VEC3"
		},
		{
			"bufferView":23,
			"componentType":5126,
			"count":28,
			"type":"VEC4"
		},
		{
			"bufferView":24,
			"componentType":5126,
			"count":2,
			"type":"VEC3"
		},
		{
			"bufferView":25,
			"componentType":5126,
			"count":2,
			"type":"VEC3"
		},
		{
			"bufferView":26,
			"componentType":5126,
			"count":28,
			"type":"VEC4"
		},
		{
			"bufferView":27,
			"componentType":5126,
			"count":2,
			"type":"VEC3"
		},
		{
			"bufferView":28,
			"componentType":5126,
			"count":2,
			"type":"VEC3"
		},
		{
			"bufferView":29,
			"componentType":5126,
			"count":28,
			"type":"VEC4"
		},
		{
			"bufferView":30,
			"componentType":5126,
			"count":2,
			"type":"VEC3"
		},
		{
			"bufferView":31,
			"componentType":5126,
			"count":2,
			"type":"VEC3"
		},
		{
			"bufferView":32,
			"componentType":5126,
			"count":28,
			"type":"VEC4"
		},
		{
			"bufferView":33,
			"componentType":5126,
			"count":2,
			"type":"VEC3"
		},
		{
			"bufferView":34,
			"componentType":5126,
			"count":2,
			"type":"VEC3"
		},
		{
			"bufferView":35,
			"componentType":5126,
			"count":28,
			"type":"VEC4"
		},
		{
			"bufferView":36,
			"componentType":5126,
			"count":2,
			"type":"VEC3"
		},
		{
			"bufferView":37,
			"componentType":5126,
			"count":2,
			"type":"VEC3"
		},
		{
			"bufferView":38,
			"componentType":5126,
			"count":28,
			"type":"VEC4"
		},
		{
			"bufferView":39,
			"componentType":5126,
			"count":2,
			"type":"VEC3"
		},
		{
			"bufferView":40,
			"componentType":5126,
			"count":2,
			"type":"VEC3"
		},
		{
			"bufferView":41,
			"componentType":5126,
			"count":28,
			"type":"VEC4"
		},
		{
			"bufferView":42,
			"componentType":5126,
			"count":2,
			"type":"VEC3"
		},
		{
			"bufferView":43,
			"componentType":5126,
			"count":2,
			"type":"VEC3"
		},
		{
			"bufferView":44,
			"componentType":5126,
			"count":28,
			"type":"VEC4"
		},
		{
			"bufferView":45,
			"componentType":5126,
			"count":2,
			"type":"VEC3"
		},
		{
			"bufferView":46,
			"componentType":5126,
			"count":2,
			"type":"VEC3"
		},
		{
			"bufferView":47,
			"componentType":5126,
			"count":28,
			"type":"VEC4"
		},
		{
			"bufferView":48,
			"componentType":5126,
			"count":2,
			"type":"VEC3"
		},
		{
			"bufferView":49,
			"componentType":5126,
			"count":2,
			"type":"VEC3"
		},
		{
			"bufferView":50,
			"componentType":5126,
			"count":28,
			"type":"VEC4"
		},
		{
			"bufferView":51,
			"componentType":5126,
			"count":2,
			"type":"VEC3"
		},
		{
			"bufferView":52,
			"componentType":5126,
			"count":2,
			"type":"VEC3"
		},
		{
			"bufferView":53,
			"componentType":5126,
			"count":28,
			"type":"VEC4"
		},
		{
			"bufferView":54,
			"componentType":5126,
			"count":2,
			"type":"VEC3"
		},
		{
			"bufferView":55,
			"componentType":5126,
			"count":2,
			"type":"VEC3"
		},
		{
			"bufferView":56,
			"componentType":5126,
			"count":28,
			"type":"VEC4"
		},
		{
			"bufferView":57,
			"componentType":5126,
			"count":2,
			"type":"VEC3"
		},
		{
			"bufferView":58,
			"componentType":5126,
			"count":2,
			"type":"VEC3"
		},
		{
			"bufferView":59,
			"componentType":5126,
			"count":28,
			"type":"VEC4"
		},
		{
			"bufferView":60,
			"componentType":5126,
			"count":2,
			"type":"VEC3"
		},
		{
			"bufferView":61,
			"componentType":5126,
			"count":2,
			"type":"VEC3"
		},
		{
			"bufferView":62,
			"componentType":5126,
			"count":28,
			"type":"VEC4"
		},
		{
			"bufferView":63,
			"componentType":5126,
			"count":2,
			"type":"VEC3"
		},
		{
			"bufferView":64,
			"componentType":5126,
			"count":2,
			"type":"VEC3"
		},
		{
			"bufferView":65,
			"componentType":5126,
			"count":2,
			"type":"VEC4"
		},
		{
			"bufferView":66,
			"componentType":5126,
			"count":2,
			"type":"VEC3"
		},
		{
			"bufferView":67,
			"componentType":5126,
			"count":2,
			"type":"VEC3"
		},
		{
			"bufferView":68,
			"componentType":5126,
			"count":28,
			"type":"VEC4"
		},
		{
			"bufferView":69,
			"componentType":5126,
			"count":2,
			"type":"VEC3"
		},
		{
			"bufferView":70,
			"componentType":5126,
			"count":2,
			"type":"VEC3"
		},
		{
			"bufferView":71,
			"componentType":5126,
			"count":28,
			"type":"VEC4"
		},
		{
			"bufferView":72,
			"componentType":5126,
			"count":2,
			"type":"VEC3"
		},
		{
			"bufferView":73,
			"componentType":5126,
			"count":2,
			"type":"VEC3"
		},
		{
			"bufferView":74,
			"componentType":5126,
			"count":28,
			"type":"VEC4"
		},
		{
			"bufferView":75,
			"componentType":5126,
			"count":2,
			"type":"VEC3"
		},
		{
			"bufferView":76,
			"componentType":5126,
			"count":2,
			"type":"VEC3"
		},
		{
			"bufferView":77,
			"componentType":5126,
			"count":2,
			"type":"VEC4"
		},
		{
			"bufferView":78,
			"componentType":5126,
			"count":2,
			"max":[
				3.4166666666666665
			],
			"min":[
				0
			],
			"type":"SCALAR"
		},
		{
			"bufferView":79,
			"componentType":5126,
			"count":83,
			"max":[
				3.4166666666666665
			],
			"min":[
				0
			],
			"type":"SCALAR"
		},
		{
			"bufferView":80,
			"componentType":5126,
			"count":83,
			"type":"VEC3"
		},
		{
			"bufferView":81,
			"componentType":5126,
			"count":2,
			"type":"VEC4"
		},
		{
			"bufferView":82,
			"componentType":5126,
			"count":2,
			"type":"VEC3"
		},
		{
			"bufferView":83,
			"componentType":5126,
			"count":2,
			"type":"VEC3"
		},
		{
			"bufferView":84,
			"componentType":5126,
			"count":2,
			"type":"VEC4"
		},
		{
			"bufferView":85,
			"componentType":5126,
			"count":2,
			"type":"VEC3"
		},
		{
			"bufferView":86,
			"componentType":5126,
			"count":2,
			"type":"VEC3"
		},
		{
			"bufferView":87,
			"componentType":5126,
			"count":83,
			"type":"VEC4"
		},
		{
			"bufferView":88,
			"componentType":5126,
			"count":2,
			"type":"VEC3"
		},
		{
			"bufferView":89,
			"componentType":5126,
			"count":83,
			"type":"VEC4"
		},
		{
			"bufferView":90,
			"componentType":5126,
			"count":2,
			"type":"VEC3"
		},
		{
			"bufferView":91,
			"componentType":5126,
			"count":83,
			"type":"VEC4"
		},
		{
			"bufferView":92,
			"componentType":5126,
			"count":2,
			"type":"VEC3"
		},
		{
			"bufferView":93,
			"componentType":5126,
			"count":83,
			"type":"VEC4"
		},
		{
			"bufferView":94,
			"componentType":5126,
			"count":2,
			"type":"VEC3"
		},
		{
			"bufferView":95,
			"componentType":5126,
			"count":2,
			"type":"VEC3"
		},
		{
			"bufferView":96,
			"componentType":5126,
			"count":83,
			"type":"VEC4"
		},
		{
			"bufferView":97,
			"componentType":5126,
			"count":2,
			"type":"VEC3"
		},
		{
			"bufferView":98,
			"componentType":5126,
			"count":2,
			"type":"VEC3"
		},
		{
			"bufferView":99,
			"componentType":5126,
			"count":83,
			"type":"VEC4"
		},
		{
			"bufferView":100,
			"componentType":5126,
			"count":2,
			"type":"VEC3"
		},
		{
			"bufferView":101,
			"componentType":5126,
			"count":2,
			"type":"VEC3"
		},
		{
			"bufferView":102,
			"componentType":5126,
			"count":83,
			"type":"VEC4"
		},
		{
			"bufferView":103,
			"componentType":5126,
			"count":2,
			"type":"VEC3"
		},
		{
			"bufferView":104,
			"componentType":5126,
			"count":2,
			"type":"VEC3"
		},
		{
			"bufferView":105,
			"componentType":5126,
			"count":83,
			"type":"VEC4"
		},
		{
			"bufferView":106,
			"componentType":5126,
			"count":2,
			"type":"VEC3"
		},
		{
			"bufferView":107,
			"componentType":5126,
			"count":83,
			"type":"VEC4"
		},
		{
			"bufferView":108,
			"componentType":5126,
			"count":2,
			"type":"VEC3"
		},
		{
			"bufferView":109,
			"componentType":5126,
			"count":83,
			"type":"VEC4"
		},
		{
			"bufferView":110,
			"componentType":5126,
			"count":2,
			"type":"VEC3"
		},
		{
			"bufferView":111,
			"componentType":5126,
			"count":2,
			"type":"VEC3"
		},
		{
			"bufferView":112,
			"componentType":5126,
			"count":83,
			"type":"VEC4"
		},
		{
			"bufferView":113,
			"componentType":5126,
			"count":2,
			"type":"VEC3"
		},
		{
			"bufferView":114,
			"componentType":5126,
			"count":2,
			"type":"VEC3"
		},
		{
			"bufferView":115,
			"componentType":5126,
			"count":83,
			"type":"VEC4"
		},
		{
			"bufferView":116,
			"componentType":5126,
			"count":2,
			"type":"VEC3"
		},
		{
			"bufferView":117,
			"componentType":5126,
			"count":2,
			"type":"VEC3"
		},
		{
			"bufferView":118,
			"componentType":5126,
			"count":83,
			"type":"VEC4"
		},
		{
			"bufferView":119,
			"componentType":5126,
			"count":2,
			"type":"VEC3"
		},
		{
			"bufferView":120,
			"componentType":5126,
			"count":2,
			"type":"VEC3"
		},
		{
			"bufferView":121,
			"componentType":5126,
			"count":83,
			"type":"VEC4"
		},
		{
			"bufferView":122,
			"componentType":5126,
			"count":2,
			"type":"VEC3"
		},
		{
			"bufferView":123,
			"componentType":5126,
			"count":83,
			"type":"VEC4"
		},
		{
			"bufferView":124,
			"componentType":5126,
			"count":2,
			"type":"VEC3"
		},
		{
			"bufferView":125,
			"componentType":5126,
			"count":2,
			"type":"VEC3"
		},
		{
			"bufferView":126,
			"componentType":5126,
			"count":2,
			"type":"VEC4"
		},
		{
			"bufferView":127,
			"componentType":5126,
			"count":2,
			"type":"VEC3"
		},
		{
			"bufferView":128,
			"componentType":5126,
			"count":2,
			"type":"VEC3"
		},
		{
			"bufferView":129,
			"componentType":5126,
			"count":83,
			"type":"VEC4"
		},
		{
			"bufferView":130,
			"componentType":5126,
			"count":2,
			"type":"VEC3"
		},
		{
			"bufferView":131,
			"componentType":5126,
			"count":2,
			"type":"VEC3"
		},
		{
			"bufferView":132,
			"componentType":5126,
			"count":83,
			"type":"VEC4"
		},
		{
			"bufferView":133,
			"componentType":5126,
			"count":2,
			"type":"VEC3"
		},
		{
			"bufferView":134,
			"componentType":5126,
			"count":83,
			"type":"VEC4"
		},
		{
			"bufferView":135,
			"componentType":5126,
			"count":2,
			"type":"VEC3"
		},
		{
			"bufferView":136,
			"componentType":5126,
			"count":2,
			"type":"VEC3"
		},
		{
			"bufferView":137,
			"componentType":5126,
			"count":2,
			"type":"VEC4"
		},
		{
			"bufferView":138,
			"componentType":5126,
			"count":2,
			"type":"VEC3"
		},
		{
			"bufferView":139,
			"componentType":5126,
			"count":2,
			"max":[
				0.7083333333333334
			],
			"min":[
				0
			],
			"type":"SCALAR"
		},
		{
			"bufferView":140,
			"componentType":5126,
			"count":18,
			"max":[
				0.7083333333333334
			],
			"min":[
				0
			],
			"type":"SCALAR"
		},
		{
			"bufferView":141,
			"componentType":5126,
			"count":18,
			"type":"VEC3"
		},
		{
			"bufferView":142,
			"componentType":5126,
			"count":18,
			"type":"VEC4"
		},
		{
			"bufferView":143,
			"componentType":5126,
			"count":2,
			"type":"VEC3"
		},
		{
			"bufferView":144,
			"componentType":5126,
			"count":18,
			"type":"VEC4"
		},
		{
			"bufferView":145,
			"componentType":5126,
			"count":2,
			"type":"VEC3"
		},
		{
			"bufferView":146,
			"componentType":5126,
			"count":18,
			"type":"VEC4"
		},
		{
			"bufferView":147,
			"componentType":5126,
			"count":2,
			"type":"VEC3"
		},
		{
			"bufferView":148,
			"componentType":5126,
			"count":2,
			"type":"VEC3"
		},
		{
			"bufferView":149,
			"componentType":5126,
			"count":18,
			"type":"VEC4"
		},
		{
			"bufferView":150,
			"componentType":5126,
			"count":2,
			"type":"VEC3"
		},
		{
			"bufferView":151,
			"componentType":5126,
			"count":18,
			"type":"VEC4"
		},
		{
			"bufferView":152,
			"componentType":5126,
			"count":2,
			"type":"VEC3"
		},
		{
			"bufferView":153,
			"componentType":5126,
			"count":18,
			"type":"VEC4"
		},
		{
			"bufferView":154,
			"componentType":5126,
			"count":2,
			"type":"VEC3"
		},
		{
			"bufferView":155,
			"componentType":5126,
			"count":18,
			"type":"VEC4"
		},
		{
			"bufferView":156,
			"componentType":5126,
			"count":2,
			"type":"VEC3"
		},
		{
			"bufferView":157,
			"componentType":5126,
			"count":2,
			"type":"VEC3"
		},
		{
			"bufferView":158,
			"componentType":5126,
			"count":18,
			"type":"VEC4"
		},
		{
			"bufferView":159,
			"componentType":5126,
			"count":2,
			"type":"VEC3"
		},
		{
			"bufferView":160,
			"componentType":5126,
			"count":18,
			"type":"VEC4"
		},
		{
			"bufferView":161,
			"componentType":5126,
			"count":2,
			"type":"VEC3"
		},
		{
			"bufferView":162,
			"componentType":5126,
			"count":2,
			"type":"VEC3"
		},
		{
			"bufferView":163,
			"componentType":5126,
			"count":18,
			"type":"VEC4"
		},
		{
			"bufferView":164,
			"componentType":5126,
			"count":2,
			"type":"VEC3"
		},
		{
			"bufferView":165,
			"componentType":5126,
			"count":18,
			"type":"VEC4"
		},
		{
			"bufferView":166,
			"componentType":5126,
			"count":2,
			"type":"VEC3"
		},
		{
			"bufferView":167,
			"componentType":5126,
			"count":2,
			"type":"VEC3"
		},
		{
			"bufferView":168,
			"componentType":5126,
			"count":18,
			"type":"VEC4"
		},
		{
			"bufferView":169,
			"componentType":5126,
			"count":2,
			"type":"VEC3"
		},
		{
			"bufferView":170,
			"componentType":5126,
			"count":2,
			"type":"VEC3"
		},
		{
			"bufferView":171,
			"componentType":5126,
			"count":18,
			"type":"VEC4"
		},
		{
			"bufferView":172,
			"componentType":5126,
			"count":2,
			"type":"VEC3"
		},
		{
			"bufferView":173,
			"componentType":5126,
			"count":2,
			"type":"VEC3"
		},
		{
			"bufferView":174,
			"componentType":5126,
			"count":18,
			"type":"VEC4"
		},
		{
			"bufferView":175,
			"componentType":5126,
			"count":2,
			"type":"VEC3"
		},
		{
			"bufferView":176,
			"componentType":5126,
			"count":2,
			"type":"VEC3"
		},
		{
			"bufferView":177,
			"componentType":5126,
			"count":18,
			"type":"VEC4"
		},
		{
			"bufferView":178,
			"componentType":5126,
			"count":2,
			"type":"VEC3"
		},
		{
			"bufferView":179,
			"componentType":5126,
			"count":2,
			"type":"VEC3"
		},
		{
			"bufferView":180,
			"componentType":5126,
			"count":18,
			"type":"VEC4"
		},
		{
			"bufferView":181,
			"componentType":5126,
			"count":2,
			"type":"VEC3"
		},
		{
			"bufferView":182,
			"componentType":5126,
			"count":18,
			"type":"VEC4"
		},
		{
			"bufferView":183,
			"componentType":5126,
			"count":2,
			"type":"VEC3"
		},
		{
			"bufferView":184,
			"componentType":5126,
			"count":2,
			"type":"VEC3"
		},
		{
			"bufferView":185,
			"componentType":5126,
			"count":2,
			"type":"VEC4"
		},
		{
			"bufferView":186,
			"componentType":5126,
			"count":2,
			"type":"VEC3"
		},
		{
			"bufferView":187,
			"componentType":5126,
			"count":2,
			"type":"VEC3"
		},
		{
			"bufferView":188,
			"componentType":5126,
			"count":18,
			"type":"VEC4"
		},
		{
			"bufferView":189,
			"componentType":5126,
			"count":2,
			"type":"VEC3"
		},
		{
			"bufferView":190,
			"componentType":5126,
			"count":2,
			"type":"VEC3"
		},
		{
			"bufferView":191,
			"componentType":5126,
			"count":18,
			"type":"VEC4"
		},
		{
			"bufferView":192,
			"componentType":5126,
			"count":2,
			"type":"VEC3"
		},
		{
			"bufferView":193,
			"componentType":5126,
			"count":18,
			"type":"VEC4"
		},
		{
			"bufferView":194,
			"componentType":5126,
			"count":2,
			"type":"VEC3"
		},
		{
			"bufferView":195,
			"componentType":5126,
			"count":2,
			"type":"VEC4"
		}
	],
	"bufferViews":[
		{
			"buffer":0,
			"byteLength":20736,
			"byteOffset":0,
			"target":34962
		},
		{
			"buffer":0,
			"byteLength":20736,
			"byteOffset":20736,
			"target":34962
		},
		{
			"buffer":0,
			"byteLength":13824,
			"byteOffset":41472,
			"target":34962
		},
		{
			"buffer":0,
			"byteLength":6912,
			"byteOffset":55296,
			"target":34962
		},
		{
			"buffer":0,
			"byteLength":27648,
			"byteOffset":62208,
			"target":34962
		},
		{
			"buffer":0,
			"byteLength":3456,
			"byteOffset":89856,
			"target":34963
		},
		{
			"buffer":0,
			"byteLength":1536,
			"byteOffset":93312
		},
		{
			"buffer":0,
			"byteLength":8,
			"byteOffset":94848
		},
		{
			"buffer":0,
			"byteLength":24,
			"byteOffset":94856
		},
		{
			"buffer":0,
			"byteLength":32,
			"byteOffset":94880
		},
		{
			"buffer":0,
			"byteLength":24,
			"byteOffset":94912
		},
		{
			"buffer":0,
			"byteLength":32,
			"byteOffset":94936
		},
		{
			"buffer":0,
			"byteLength":112,
			"byteOffset":94968
		},
		{
			"buffer":0,
			"byteLength":336,
			"byteOffset":95080
		},
		{
			"buffer":0,
			"byteLength":448,
			"byteOffset":95416
		},
		{
			"buffer":0,
			"byteLength":24,
			"byteOffset":95864
		},
		{
			"buffer":0,
			"byteLength":24,
			"byteOffset":95888
		},
		{
			"buffer":0,
			"byteLength":448,
			"byteOffset":95912
		},
		{
			"buffer":0,
			"byteLength":24,
			"byteOffset":96360
		},
		{
			"buffer":0,
			"byteLength":24,
			"byteOffset":96384
		},
		{
			"buffer":0,
			"byteLength":448,
			"byteOffset":96408
		},
		{
			"buffer":0,
			"byteLength":24,
			"byteOffset":96856
		},
		{
			"buffer":0,
			"byteLength":24,
			"byteOffset":96880
		},
		{
			"buffer":0,
			"byteLength":448,
			"byteOffset":96904
		},
		{
			"buffer":0,
			"byteLength":24,
			"byteOffset":97352
		},
		{
			"buffer":0,
			"byteLength":24,
			"byteOffset":97376
		},
		{
			"buffer":0,
			"byteLength":448,
			"byteOffset":97400
		},
		{
			"buffer":0,
			"byteLength":24,
			"byteOffset":97848
		},
		{
			"buffer":0,
			"byteLength":24,
			"byteOffset":97872
		},
		{
			"buffer":0,
			"byteLength":448,
			"byteOffset":97896
		},
		{
			"buffer":0,
			"byteLength":24,
			"byteOffset":98344
		},
		{
			"buffer":0,
			"byteLength":24,
			"byteOffset":98368
		},
		{
			"buffer":0,
			"byteLength":448,
			"byteOffset":98392
		},
		{
			"buffer":0,
			"byteLength":24,
			"byteOffset":98840
		},
		{
			"buffer":0,
			"byteLength":24,
			"byteOffset":98864
		},
		{
			"buffer":0,
			"byteLength":448,
			"byteOffset":98888
		},
		{
			"buffer":0,
			"byteLength":24,
			"byteOffset":99336
		},
		{
			"buffer":0,
			"byteLength":24,
			"byteOffset":99360
		},
		{
			"buffer":0,
			"byteLength":448,
			"byteOffset":99384
		},
		{
			"buffer":0,
			"byteLength":24,
			"byteOffset":99832
		},
		{
			"buffer":0,
			"byteLength":24,
			"byteOffset":99856
		},
		{
			"buffer":0,
			"byteLength":448,
			"byteOffset":99880
		},
		{
			"buffer":0,
			"byteLength":24,
			"byteOffset":100328
		},
		{
			"buffer":0,
			"byteLength":24,
			"byteOffset":100352
		},
		{
			"buffer":0,
			"byteLength":448,
			"byteOffset":100376
		},
		{
			"buffer":0,
			"byteLength":24,
			"byteOffset":100824
		},
		{
			"buffer":0,
			"byteLength":24,
			"byteOffset":100848
		},
		{
			"buffer":0,
			"byteLength":448,
			"byteOffset":100872
		},
		{
			"buffer":0,
			"byteLength":24,
			"byteOffset":101320
		},
		{
			"buffer":0,
			"byteLength":24,
			"byteOffset":101344
		},
		{
			"buffer":0,
			"byteLength":448,
			"byteOffset":101368
		},
		{
			"buffer":0,
			"byteLength":24,
			"byteOffset":101816
		},
		{
			"buffer":0,
			"byteLength":24,
			"byteOffset":101840
		},
		{
			"buffer":0,
			"byteLength":448,
			"byteOffset":101864
		},
		{
			"buffer":0,
			"byteLength":24,
			"byteOffset":102312
		},
		{
			"buffer":0,
			"byteLength":24,
			"byteOffset":102336
		},
		{
			"buffer":0,
			"byteLength":448,
			"byteOffset":102360
		},
		{
			"buffer":0,
			"byteLength":24,
			"byteOffset":102808
		},
		{
			"buffer":0,
			"byteLength":24,
			"byteOffset":102832
		},
		{
			"buffer":0,
			"byteLength":448,
			"byteOffset":102856
		},
		{
			"buffer":0,
			"byteLength":24,
			"byteOffset":103304
		},
		{
			"buffer":0,
			"byteLength":24,
			"byteOffset":103328
		},
		{
			"buffer":0,
			"byteLength":448,
			"byteOffset":103352
		},
		{
			"buffer":0,
			"byteLength":24,
			"byteOffset":103800
		},
		{
			"buffer":0,
			"byteLength":24,
			"byteOffset":103824
		},
		{
			"buffer":0,
			"byteLength":32,
			"byteOffset":103848
		},
		{
			"buffer":0,
			"byteLength":24,
			"byteOffset":103880
		},
		{
			"buffer":0,
			"byteLength":24,
			"byteOffset":103904
		},
		{
			"buffer":0,
			"byteLength":448,
			"byteOffset":103928
		},
		{
			"buffer":0,
			"byteLength":24,
			"byteOffset":104376
		},
		{
			"buffer":0,
			"byteLength":24,
			"byteOffset":104400
		},
		{
			"buffer":0,
			"byteLength":448,
			"byteOffset":104424
		},
		{
			"buffer":0,
			"byteLength":24,
			"byteOffset":104872
		},
		{
			"buffer":0,
			"byteLength":24,
			"byteOffset":104896
		},
		{
			"buffer":0,
			"byteLength":448,
			"byteOffset":104920
		},
		{
			"buffer":0,
			"byteLength":24,
			"byteOffset":105368
		},
		{
			"buffer":0,
			"byteLength":24,
			"byteOffset":105392
		},
		{
			"buffer":0,
			"byteLength":32,
			"byteOffset":105416
		},
		{
			"buffer":0,
			"byteLength":8,
			"byteOffset":105448
		},
		{
			"buffer":0,
			"byteLength":332,
			"byteOffset":105456
		},
		{
			"buffer":0,
			"byteLength":996,
			"byteOffset":105788
		},
		{
			"buffer":0,
			"byteLength":32,
			"byteOffset":106784
		},
		{
			"buffer":0,
			"byteLength":24,
			"byteOffset":106816
		},
		{
			"buffer":0,
			"byteLength":24,
			"byteOffset":106840
		},
		{
			"buffer":0,
			"byteLength":32,
			"byteOffset":106864
		},
		{
			"buffer":0,
			"byteLength":24,
			"byteOffset":106896
		},
		{
			"buffer":0,
			"byteLength":24,
			"byteOffset":106920
		},
		{
			"buffer":0,
			"byteLength":1328,
			"byteOffset":106944
		},
		{
			"buffer":0,
			"byteLength":24,
			"byteOffset":108272
		},
		{
			"buffer":0,
			"byteLength":1328,
			"byteOffset":108296
		},
		{
			"buffer":0,
			"byteLength":24,
			"byteOffset":109624
		},
		{
			"buffer":0,
			"byteLength":1328,
			"byteOffset":109648
		},
		{
			"buffer":0,
			"byteLength":24,
			"byteOffset":110976
		},
		{
			"buffer":0,
			"byteLength":1328,
			"byteOffset":111000
		},
		{
			"buffer":0,
			"byteLength":24,
			"byteOffset":112328
		},
		{
			"buffer":0,
			"byteLength":24,
			"byteOffset":112352
		},
		{
			"buffer":0,
			"byteLength":1328,
			"byteOffset":112376
		},
		{
			"buffer":0,
			"byteLength":24,
			"byteOffset":113704
		},
		{
			"buffer":0,
			"byteLength":24,
			"byteOffset":113728
		},
		{
			"buffer":0,
			"byteLength":1328,
			"byteOffset":113752
		},
		{
			"buffer":0,
			"byteLength":24,
			"byteOffset":115080
		},
		{
			"buffer":0,
			"byteLength":24,
			"byteOffset":115104
		},
		{
			"buffer":0,
			"byteLength":1328,
			"byteOffset":115128
		},
		{
			"buffer":0,
			"byteLength":24,
			"byteOffset":116456
		},
		{
			"buffer":0,
			"byteLength":24,
			"byteOffset":116480
		},
		{
			"buffer":0,
			"byteLength":1328,
			"byteOffset":116504
		},
		{
			"buffer":0,
			"byteLength":24,
			"byteOffset":117832
		},
		{
			"buffer":0,
			"byteLength":1328,
			"byteOffset":117856
		},
		{
			"buffer":0,
			"byteLength":24,
			"byteOffset":119184
		},
		{
			"buffer":0,
			"byteLength":1328,
			"byteOffset":119208
		},
		{
			"buffer":0,
			"byteLength":24,
			"byteOffset":120536
		},
		{
			"buffer":0,
			"byteLength":24,
			"byteOffset":120560
		},
		{
			"buffer":0,
			"byteLength":1328,
			"byteOffset":120584
		},
		{
			"buffer":0,
			"byteLength":24,
			"byteOffset":121912
		},
		{
			"buffer":0,
			"byteLength":24,
			"byteOffset":121936
		},
		{
			"buffer":0,
			"byteLength":1328,
			"byteOffset":121960
		},
		{
			"buffer":0,
			"byteLength":24,
			"byteOffset":123288
		},
		{
			"buffer":0,
			"byteLength":24,
			"byteOffset":123312
		},
		{
			"buffer":0,
			"byteLength":1328,
			"byteOffset":123336
		},
		{
			"buffer":0,
			"byteLength":24,
			"byteOffset":124664
		},
		{
			"buffer":0,
			"byteLength":24,
			"byteOffset":124688
		},
		{
			"buffer":0,
			"byteLength":1328,
			"byteOffset":124712
		},
		{
			"buffer":0,
			"byteLength":24,
			"byteOffset":126040
		},
		{
			"buffer":0,
			"byteLength":1328,
			"byteOffset":126064
		},
		{
			"buffer":0,
			"byteLength":24,
			"byteOffset":127392
		},
		{
			"buffer":0,
			"byteLength":24,
			"byteOffset":127416
		},
		{
			"buffer":0,
			"byteLength":32,
			"byteOffset":127440
		},
		{
			"buffer":0,
			"byteLength":24,
			"byteOffset":127472
		},
		{
			"buffer":0,
			"byteLength":24,
			"byteOffset":127496
		},
		{
			"buffer":0,
			"byteLength":1328,
			"byteOffset":127520
		},
		{
			"buffer":0,
			"byteLength":24,
			"byteOffset":128848
		},
		{
			"buffer":0,
			"byteLength":24,
			"byteOffset":128872
		},
		{
			"buffer":0,
			"byteLength":1328,
			"byteOffset":128896
		},
		{
			"buffer":0,
			"byteLength":24,
			"byteOffset":130224
		},
		{
			"buffer":0,
			"byteLength":1328,
			"byteOffset":130248
		},
		{
			"buffer":0,
			"byteLength":24,
			"byteOffset":131576
		},
		{
			"buffer":0,
			"byteLength":24,
			"byteOffset":131600
		},
		{
			"buffer":0,
			"byteLength":32,
			"byteOffset":131624
		},
		{
			"buffer":0,
			"byteLength":24,
			"byteOffset":131656
		},
		{
			"buffer":0,
			"byteLength":8,
			"byteOffset":131680
		},
		{
			"buffer":0,
			"byteLength":72,
			"byteOffset":131688
		},
		{
			"buffer":0,
			"byteLength":216,
			"byteOffset":131760
		},
		{
			"buffer":0,
			"byteLength":288,
			"byteOffset":131976
		},
		{
			"buffer":0,
			"byteLength":24,
			"byteOffset":132264
		},
		{
			"buffer":0,
			"byteLength":288,
			"byteOffset":132288
		},
		{
			"buffer":0,
			"byteLength":24,
			"byteOffset":132576
		},
		{
			"buffer":0,
			"byteLength":288,
			"byteOffset":132600
		},
		{
			"buffer":0,
			"byteLength":24,
			"byteOffset":132888
		},
		{
			"buffer":0,
			"byteLength":24,
			"byteOffset":132912
		},
		{
			"buffer":0,
			"byteLength":288,
			"byteOffset":132936
		},
		{
			"buffer":0,
			"byteLength":24,
			"byteOffset":133224
		},
		{
			"buffer":0,
			"byteLength":288,
			"byteOffset":133248
		},
		{
			"buffer":0,
			"byteLength":24,
			"byteOffset":133536
		},
		{
			"buffer":0,
			"byteLength":288,
			"byteOffset":133560
		},
		{
			"buffer":0,
			"byteLength":24,
			"byteOffset":133848
		},
		{
			"buffer":0,
			"byteLength":288,
			"byteOffset":133872
		},
		{
			"buffer":0,
			"byteLength":24,
			"byteOffset":134160
		},
		{
			"buffer":0,
			"byteLength":24,
			"byteOffset":134184
		},
		{
			"buffer":0,
			"byteLength":288,
			"byteOffset":134208
		},
		{
			"buffer":0,
			"byteLength":24,
			"byteOffset":134496
		},
		{
			"buffer":0,
			"byteLength":288,
			"byteOffset":134520
		},
		{
			"buffer":0,
			"byteLength":24,
			"byteOffset":134808
		},
		{
			"buffer":0,
			"byteLength":24,
			"byteOffset":134832
		},
		{
			"buffer":0,
			"byteLength":288,
			"byteOffset":134856
		},
		{
			"buffer":0,
			"byteLength":24,
			"byteOffset":135144
		},
		{
			"buffer":0,
			"byteLength":288,
			"byteOffset":135168
		},
		{
			"buffer":0,
			"byteLength":24,
			"byteOffset":135456
		},
		{
			"buffer":0,
			"byteLength":24,
			"byteOffset":135480
		},
		{
			"buffer":0,
			"byteLength":288,
			"byteOffset":135504
		},
		{
			"buffer":0,
			"byteLength":24,
			"byteOffset":135792
		},
		{
			"buffer":0,
			"byteLength":24,
			"byteOffset":135816
		},
		{
			"buffer":0,
			"byteLength":288,
			"byteOffset":135840
		},
		{
			"buffer":0,
			"byteLength":24,
			"byteOffset":136128
		},
		{
			"buffer":0,
			"byteLength":24,
			"byteOffset":136152
		},
		{
			"buffer":0,
			"byteLength":288,
			"byteOffset":136176
		},
		{
			"buffer":0,
			"byteLength":24,
			"byteOffset":136464
		},
		{
			"buffer":0,
			"byteLength":24,
			"byteOffset":136488
		},
		{
			"buffer":0,
			"byteLength":288,
			"byteOffset":136512
		},
		{
			"buffer":0,
			"byteLength":24,
			"byteOffset":136800
		},
		{
			"buffer":0,
			"byteLength":24,
			"byteOffset":136824
		},
		{
			"buffer":0,
			"byteLength":288,
			"byteOffset":136848
		},
		{
			"buffer":0,
			"byteLength":24,
			"byteOffset":137136
		},
		{
			"buffer":0,
			"byteLength":288,
			"byteOffset":137160
		},
		{
			"buffer":0,
			"byteLength":24,
			"byteOffset":137448
		},
		{
			"buffer":0,
			"byteLength":24,
			"byteOffset":137472
		},
		{
			"buffer":0,
			"byteLength":32,
			"byteOffset":137496
		},
		{
			"buffer":0,
			"byteLength":24,
			"byteOffset":137528
		},
		{
			"buffer":0,
			"byteLength":24,
			"byteOffset":137552
		},
		{
			"buffer":0,
			"byteLength":288,
			"byteOffset":137576
		},
		{
			"buffer":0,
			"byteLength":24,
			"byteOffset":137864
		},
		{
			"buffer":0,
			"byteLength":24,
			"byteOffset":137888
		},
		{
			"buffer":0,
			"byteLength":288,
			"byteOffset":137912
		},
		{
			"buffer":0,
			"byteLength":24,
			"byteOffset":138200
		},
		{
			"buffer":0,
			"byteLength":288,
			"byteOffset":138224
		},
		{
			"buffer":0,
			"byteLength":24,
			"byteOffset":138512
		},
		{
			"buffer":0,
			"byteLength":32,
			"byteOffset":138536
		}
	],
	"samplers":[
		{
			"magFilter":9729,
			"minFilter":9987
		}
	],
	"buffers":[
		{
			"byteLength":138568,
			"uri":"Fox.bin"
		}
	]
}
